<?xml version="1.0" encoding="UTF-8"?>
<svg version="1.1" xmlns="http://www.w3.org/2000/svg">
    <symbol id="icon-avaliacao_off" viewBox="0 0 16 15">
        <title>avaliacao_off</title>
        <desc>Created with Sketch.</desc>
        <g id="Page-1" stroke="none" stroke-width="1" fill="none" fill-rule="evenodd">
            <g id="Guide" transform="translate(-483.000000, -877.000000)" fill="#FFBEBE" fill-rule="nonzero">
                <path d="M498.317612,882.265811 L493.683489,881.533992 C493.683489,881.533992 492.495409,878.881647 491.727131,877.578968 C490.957834,876.27629 490.399457,877.578968 490.399457,877.578968 L488.325921,881.533992 L483.598056,882.219822 C482.38756,882.768687 483.389174,883.569489 483.389174,883.569489 L486.625316,886.652728 L485.832584,891.178611 C485.669554,892.526278 487.09097,891.795458 487.09097,891.795458 L491.026103,889.828944 L495.034599,891.840447 C496.409144,892.457295 496.152372,891.086633 496.152372,891.086633 L495.452363,886.675722 L498.5968,883.545495 C499.645286,882.583733 498.317612,882.265811 498.317612,882.265811 Z" id="avaliacao_off"></path>
            </g>
        </g>
    </symbol>

    <symbol id="icon-avaliacao_on" viewBox="0 0 16 15" >
        <title>avaliacao_on</title>
        <desc>Created with Sketch.</desc>
        <g id="Page-1" stroke="none" stroke-width="1" fill="none" fill-rule="evenodd">
            <g id="Guide" transform="translate(-483.000000, -831.000000)" fill="#FF0000" fill-rule="nonzero">
                <path d="M498.317612,836.265811 L493.683489,835.533992 C493.683489,835.533992 492.495409,832.881647 491.727131,831.578968 C490.957834,830.27629 490.399457,831.578968 490.399457,831.578968 L488.325921,835.533992 L483.598056,836.219822 C482.38756,836.768687 483.389174,837.569489 483.389174,837.569489 L486.625316,840.652728 L485.832584,845.178611 C485.669554,846.526278 487.09097,845.795458 487.09097,845.795458 L491.026103,843.828944 L495.034599,845.840447 C496.409144,846.457295 496.152372,845.086633 496.152372,845.086633 L495.452363,840.675722 L498.5968,837.545495 C499.645286,836.583733 498.317612,836.265811 498.317612,836.265811 Z" id="avaliacao_on"></path>
            </g>
        </g>
    </symbol>

    <symbol id="icon-favorito_01" viewBox="0 0 18 18">
        <title>favorito_01</title>
        <desc>Created with Sketch.</desc>
        <g id="Page-1" stroke="none" stroke-width="1" fill="none" fill-rule="evenodd">
            <g id="Guide" transform="translate(-155.000000, -829.000000)" fill="#FF0000" fill-rule="nonzero">
                <path d="M171.428712,839.053345 L164.268331,846.885348 C164.199896,846.960594 164.102641,847 164.001802,847 C163.900941,847 163.803707,846.960594 163.735272,846.885348 L156.574892,839.053345 C154.475036,836.760342 154.475036,833.030654 156.574892,830.737651 C157.59779,829.616232 158.962887,829 160.418006,829 C161.750677,829 163.011307,829.515925 164.001802,830.465354 C164.992297,829.515925 166.249322,829 167.581993,829 C169.037112,829 170.405792,829.616232 171.432318,830.737651 C173.524963,833.030654 173.521357,836.760342 171.428712,839.053345 Z" id="favorito_01"></path>
            </g>
        </g>
    </symbol>

    <symbol id="icon-favorito_02" viewBox="0 0 20 20">
        <title>favorito_02</title>
        <desc>Created with Sketch.</desc>
        <g id="Page-1" stroke="none" stroke-width="1" fill="none" fill-rule="evenodd">
            <g id="Guide" transform="translate(-231.000000, -828.000000)" fill-rule="nonzero" stroke="#FF0000" stroke-width="2">
                <path d="M248.428712,839.053345 L241.268331,846.885348 C241.199896,846.960594 241.102641,847 241.001802,847 C240.900941,847 240.803707,846.960594 240.735272,846.885348 L233.574892,839.053345 C231.475036,836.760342 231.475036,833.030654 233.574892,830.737651 C234.59779,829.616232 235.962887,829 237.418006,829 C238.750677,829 240.011307,829.515925 241.001802,830.465354 C241.992297,829.515925 243.249322,829 244.581993,829 C246.037112,829 247.405792,829.616232 248.432318,830.737651 C250.524963,833.030654 250.521357,836.760342 248.428712,839.053345 Z" id="favorito_02"></path>
            </g>
        </g>
    </symbol>

    <symbol id="icon-favorito_03" viewBox="0 0 18 18">
        <title>favorito_03</title>
        <desc>Created with Sketch.</desc>
        <g id="Page-1" stroke="none" stroke-width="1" fill="none" fill-rule="evenodd">
            <g id="Guide" transform="translate(-155.000000, -875.000000)" fill="#C10000" fill-rule="nonzero">
                <path d="M171.428712,885.053345 L164.268331,892.885348 C164.199896,892.960594 164.102641,893 164.001802,893 C163.900941,893 163.803707,892.960594 163.735272,892.885348 L156.574892,885.053345 C154.475036,882.760342 154.475036,879.030654 156.574892,876.737651 C157.59779,875.616232 158.962887,875 160.418006,875 C161.750677,875 163.011307,875.515925 164.001802,876.465354 C164.992297,875.515925 166.249322,875 167.581993,875 C169.037112,875 170.405792,875.616232 171.432318,876.737651 C173.524963,879.030654 173.521357,882.760342 171.428712,885.053345 Z" id="favorito_03"></path>
            </g>
        </g>
    </symbol>

    <symbol id="icon-ic_busca" viewBox="0 0 29 29">
        <title>ic_busca</title>
        <desc>Created with Sketch.</desc>
        <g id="Page-1" stroke="none" stroke-width="1" fill="none" fill-rule="evenodd">
            <g id="Guide" transform="translate(-100.000000, -534.000000)" fill="#FF0000" fill-rule="nonzero">
                <path d="M128.518121,560.255144 L121.405974,553.134431 C124.981914,548.48011 124.62432,541.757202 120.333192,537.500686 C117.988965,535.153635 114.969282,534 111.909867,534 C108.850451,534 105.830769,535.153635 103.486541,537.500686 C98.8378195,542.155007 98.8378195,549.713306 103.486541,554.367627 C105.830769,556.714678 108.850451,557.868313 111.909867,557.868313 C114.452757,557.868313 116.995648,557.072702 119.101479,555.441701 L126.253359,562.522634 C126.571221,562.840878 126.968547,563 127.405607,563 C127.802933,563 128.239993,562.840878 128.557854,562.522634 C129.153844,561.925926 129.153844,560.891632 128.518121,560.255144 Z M111.675725,554.138889 C109.395695,554.138889 107.308887,553.250571 105.685814,551.667047 C102.401025,548.384132 102.401025,543.015601 105.685814,539.694064 C107.270242,538.11054 109.395695,537.222222 111.675725,537.222222 C113.955755,537.222222 116.042563,538.11054 117.665636,539.694064 C119.288708,541.277588 120.138889,543.401826 120.138889,545.680556 C120.138889,547.959285 119.250063,550.044901 117.665636,551.667047 C116.081208,553.289193 113.917111,554.138889 111.675725,554.138889 Z" id="ic_busca"></path>
            </g>
        </g>
    </symbol>

    <symbol id="icon-ic_busca_menor" viewBox="0 0 19 19">
        <title>ic_busca_menor</title>
        <desc>Created with Sketch.</desc>
        <g id="Page-1" stroke="none" stroke-width="1" fill="none" fill-rule="evenodd">
            <g id="Guide" transform="translate(-90.000000, -634.000000)" fill="#FF0000" fill-rule="nonzero">
                <path d="M108.684286,651.201646 L104.024604,646.536351 C106.367461,643.486968 106.133175,639.082305 103.321746,636.293553 C101.785873,634.75583 99.8074606,634 97.8030161,634 C95.7985716,634 93.8201589,634.75583 92.2842858,636.293553 C89.2385714,639.342936 89.2385714,644.294925 92.2842858,647.344307 C93.8201589,648.88203 95.7985716,649.63786 97.8030161,649.63786 C99.4690479,649.63786 101.13508,649.116598 102.514762,648.048011 L107.200477,652.687243 C107.408731,652.895748 107.669048,653 107.955397,653 C108.215715,653 108.502064,652.895748 108.710318,652.687243 C109.100794,652.296296 109.100794,651.618656 108.684286,651.201646 Z M97.6496129,647.194444 C96.1557999,647.194444 94.7885811,646.612443 93.7251888,645.574962 C91.5730852,643.424087 91.5730852,639.906773 93.7251888,637.730594 C94.7632623,636.693113 96.1557999,636.111111 97.6496129,636.111111 C99.143426,636.111111 100.510645,636.693113 101.574037,637.730594 C102.637429,638.768075 103.194444,640.159817 103.194444,641.652778 C103.194444,643.145738 102.612111,644.512177 101.574037,645.574962 C100.535964,646.637747 99.1181071,647.194444 97.6496129,647.194444 Z" id="ic_busca_menor"></path>
            </g>
        </g>
    </symbol>

    <symbol id="icon-ic_heroi" viewBox="0 0 18 27">
        <title>ic_heroi</title>
        <desc>Created with Sketch.</desc>
        <g id="Page-1" stroke="none" stroke-width="1" fill="none" fill-rule="evenodd">
            <g id="Guide" transform="translate(-78.000000, -824.000000)" fill="#FF0000" fill-rule="nonzero">
                <g id="ic_heroi" transform="translate(78.000000, 824.000000)">
                    <path d="M8.7752,5.3984 C10.265927,5.3984 11.4744,4.189927 11.4744,2.6992 C11.4744,1.208473 10.265927,0 8.7752,0 C7.284473,0 6.076,1.208473 6.076,2.6992 C6.076,4.189927 7.284473,5.3984 8.7752,5.3984 Z" id="Path"></path>
                    <path d="M5.1296,14.9744 C4.5221347,15.1992414 3.84187849,15.0978368 3.3264,14.7056 C2.9704567,14.4340467 2.6319234,14.1404018 2.3128,13.8264 L0,21.28 C0,21.28 1.1872,21.4144 2.9512,21.5768 L5.1296,14.9744 Z" id="Path"></path>
                    <path d="M11.5808,14.756 C11.5636658,14.702461 11.5430896,14.6500852 11.5192,14.5992 C11.8832,12.5832 12.2864,10.5448 12.7232,8.5176 C13.4904,9.0048 13.9552,9.548 13.9944,10.024 C14.0504,10.6232 13.4736,11.4128 12.3704,12.264 C11.9573751,12.574753 11.7901247,13.1153032 11.9554808,13.6050117 C12.1208369,14.0947201 12.5815378,14.4232349 13.0984,14.42 C13.3616058,14.4204374 13.6175654,14.3338049 13.8264,14.1736 C15.6576,12.7736 16.52,11.312 16.3912,9.8224 C16.277822,8.85251654 15.8065353,7.95986756 15.0696,7.3192 C14.5243349,6.81831975 13.9117432,6.39610264 13.2496,6.0648 C13.1421706,6.01125747 13.0268326,5.97533251 12.908,5.9584 C12.7915408,5.91593533 12.6678377,5.89690409 12.544,5.9024 L5.0064,5.9024 C4.88036525,5.89868594 4.7548175,5.91961057 4.6368,5.964 C4.52524009,5.98153765 4.41737051,6.01749417 4.3176,6.0704 C3.65454007,6.39783892 3.04167785,6.81835669 2.4976,7.3192 C1.76274425,7.96078468 1.29351504,8.85331853 1.1816,9.8224 C1.0472,11.312 1.9096,12.7736 3.7408,14.1736 C4.26741739,14.5724842 5.01709087,14.4725277 5.4208,13.9496 C5.81843669,13.4215252 5.71594903,12.6716155 5.1912,12.2696 C4.0712,11.4296 3.5112,10.64 3.5672,10.0296 C3.6064,9.5592 4.0656,9.016 4.8272,8.5288 C5.2528,10.5224 5.6504,12.5272 6.0144,14.5096 C5.98677404,14.5659999 5.96246598,14.6239653 5.9416,14.6832 L2.6152,24.7632 C2.48613024,25.1530555 2.51751687,25.5782492 2.70243185,25.9449272 C2.88734683,26.3116052 3.21058597,26.5896183 3.6008,26.7176 C3.75766088,26.7708435 3.92235461,26.797346 4.088,26.796 C4.7511592,26.8008058 5.34456337,26.3849734 5.5664,25.76 L8.7528,16.072 L11.9672,25.816 C12.1758349,26.4522461 12.7704222,26.8817959 13.44,26.8800056 C13.6054237,26.8785765 13.7696808,26.8521443 13.9272,26.8016 C14.317414,26.6736183 14.6406532,26.3956052 14.8255681,26.0289272 C15.0104831,25.6622492 15.0418698,25.2370555 14.9128,24.8472 L11.5808,14.756 Z M10.08,11.4744 L8.7864,10.808 L7.5152,11.4744 L7.756,10.08 L6.72,9.0608 L8.1368,8.8536 L8.7752,7.5656 L9.408,8.8536 L10.8248,9.0608 L9.8112,10.08 L10.08,11.4744 Z" id="Shape"></path>
                    <path d="M7.5432,21.9184 C8.35706667,21.9632 9.17466667,21.9968 9.996,22.0192 L8.7528,18.2504 L7.5432,21.9184 Z" id="Path"></path>
                    <path d="M14.2408,14.7056 C13.9190076,14.9520021 13.5260711,15.0875652 13.1208,15.092 C12.8690456,15.0924438 12.6197026,15.0429559 12.3872,14.9464 L14.672,21.952 C15.7856476,21.9197803 16.8849957,21.692329 17.92,21.28 L15.4,13.6808 C15.0376857,14.0487134 14.6503617,14.3911303 14.2408,14.7056 L14.2408,14.7056 Z" id="Path"></path>
                </g>
            </g>
        </g>
    </symbol>

    <symbol id="icon-quadrinhos" viewBox="0 0 28 31">
        <title>quadrinhos</title>
        <desc>Created with Sketch.</desc>
        <g id="Page-1" stroke="none" stroke-width="1" fill="none" fill-rule="evenodd">
            <g id="Guide" transform="translate(-303.000000, -823.000000)" fill="#FF0000" fill-rule="nonzero">
                <g id="quadrinhos" transform="translate(303.000000, 823.000000)">
                    <path d="M10.4102564,0 C8.61538462,7.04545374 6.1025641,8.80681718 0,10.9204533 L0,15.8522744 L12.9230769,31 L12.9230769,26.4204551 C18.3076923,24.6590916 21.5384615,20.7840921 23.6923077,16.2045471 L10.4102564,0 Z M13.2820513,31 C20.1025641,29.2386366 24.7692308,27.4772731 26.9230769,26.4204551 L26.9230769,22.5564464 C23.6026933,25.1532598 17.2728338,28.7945968 13.2820513,30.2954546 L13.2820513,31 Z M14,1.76135991 L13.3269231,2.4218712 L24.2532051,15.7531801 C24.4190764,15.9569699 24.4552682,16.2543937 24.3429487,16.4907687 C22.1558005,21.1411204 18.8094021,25.2727507 13.2820513,27.1250004 L13.2932513,27.917614 C19.036841,26.5085232 23.3333154,21.4886374 27.2820333,16.9090925 L13.9999821,1.76135991 L14,1.76135991 Z M11.3076744,5.16299305 L14.1794692,8.33344723 C14.3612395,8.53687062 14.4070913,8.84734263 14.2916487,9.09303522 C12.8056528,12.3741101 10.8425836,14.3136037 7.8637641,15.7751972 C7.58186513,15.9147676 7.20790359,15.8432563 7,15.610087 L3.76923077,12.0873531 C3.44875282,11.7336361 3.64255231,11.0743401 4.10576923,10.9424668 C7.57774769,9.92031944 8.70825128,8.80465423 10.1073718,5.37215496 C10.5250744,4.837789 10.7802692,4.82200366 11.3076744,5.16299305 Z M10.9375,6.8803224 C9.71289128,9.43498631 8.15512205,10.9250786 5.53044872,11.9002082 L7.68429487,14.2450233 C10.0177467,13.0098953 11.5234467,11.5116937 12.7772436,8.91689887 L10.9375,6.8803224 Z M26.3060897,19.1217877 C22.9835595,22.9051259 18.0500026,27.3454879 13.2820513,28.8863639 L13.2820513,29.5909093 C18.6666667,28.1818185 23.6923077,24.3068189 28,20.7840921 L26.3060897,19.1217877 Z" id="Shape"></path>
                </g>
            </g>
        </g>
    </symbol>

    <symbol id="icon-trailer" viewBox="0 0 30 23">
        <title>trailer</title>
        <desc>Created with Sketch.</desc>
        <g id="Page-1" stroke="none" stroke-width="1" fill="none" fill-rule="evenodd">
            <g id="Guide" transform="translate(-384.000000, -828.000000)" fill="#FF0000" fill-rule="nonzero">
                <path d="M411.615,828 L386.385,828 C385.752459,828 385.145825,828.258584 384.69855,828.718866 C384.251276,829.179148 384,829.803425 384,830.454362 L384,848.545638 C384,849.901145 385.067801,851 386.385,851 L411.615,851 C412.932199,851 414,849.901145 414,848.545638 L414,830.454362 C414,829.098855 412.932199,828 411.615,828 Z M388.994709,846.613596 C388.994709,846.827001 388.824151,847 388.613757,847 L385.380952,847 C385.170558,847 385,846.827001 385,846.613596 L385,844.386404 C385,844.172999 385.170558,844 385.380952,844 L388.619048,844 C388.829442,844 389,844.172999 389,844.386404 L388.994709,846.613596 Z M388.994709,840.613596 C388.994709,840.827001 388.824151,841 388.613757,841 L385.380952,841 C385.170558,841 385,840.827001 385,840.613596 L385,838.386404 C385,838.172999 385.170558,838 385.380952,838 L388.619048,838 C388.829442,838 389,838.172999 389,838.386404 L388.994709,840.613596 Z M388.994709,834.612903 C388.994709,834.826691 388.824151,835 388.613757,835 L385.380952,835 C385.170558,835 385,834.826691 385,834.612903 L385,832.376344 C385.005731,832.166767 385.174622,831.999919 385.380952,832 L388.619048,832 C388.829442,832 389,832.173309 389,832.387097 L388.994709,834.612903 Z M402.569953,840.819144 L396.337568,844.863018 C396.064804,845.040849 395.724577,845.045863 395.447433,844.876137 C395.170289,844.70641 394.999272,844.388302 395,844.043874 L395,835.956126 C394.999272,835.611698 395.170289,835.29359 395.447433,835.123863 C395.724577,834.954137 396.064804,834.959151 396.337568,835.136982 L402.569953,839.180856 C402.836658,839.35299 403,839.66412 403,840 C403,840.33588 402.836658,840.64701 402.569953,840.819144 Z M413,846.613596 C413,846.827001 412.829216,847 412.618543,847 L409.381457,847 C409.170784,847 409,846.827001 409,846.613596 L409,844.386404 C409,844.172999 409.170784,844 409.381457,844 L412.618543,844 C412.829216,844 413,844.172999 413,844.386404 L413,846.613596 Z M413,840.613596 C413,840.827001 412.829216,841 412.618543,841 L409.381457,841 C409.170784,841 409,840.827001 409,840.613596 L409,838.386404 C409,838.172999 409.170784,838 409.381457,838 L412.618543,838 C412.829216,838 413,838.172999 413,838.386404 L413,840.613596 Z M413,834.614286 C413,834.82731 412.829216,835 412.618543,835 L409.381457,835 C409.170784,835 409,834.82731 409,834.614286 L409,832.385714 C409,832.17269 409.170784,832 409.381457,832 L412.618543,832 C412.829216,832 413,832.17269 413,832.385714 L413,834.614286 Z" id="trailer"></path>
            </g>
        </g>
    </symbol>
</svg>